<?xml version="1.0" encoding="utf-8"?>
<!-- Generator: Adobe Illustrator 26.0.1, SVG Export Plug-In . SVG Version: 6.00 Build 0)  -->
<svg version="1.1" id="Слой_1" xmlns="http://www.w3.org/2000/svg" xmlns:xlink="http://www.w3.org/1999/xlink" x="0px" y="0px"
	 viewBox="0 0 232.5 26.6" style="enable-background:new 0 0 232.5 26.6;" xml:space="preserve">
<style type="text/css">
	.st0{clip-path:url(#SVGID_00000062895934293571665300000013009351479856846735_);}
	.st1{fill:#00FF2B;stroke:#75FF3F;stroke-miterlimit:10;}
</style>
<g>
	<defs>
		<rect id="SVGID_1_" x="-8.2" y="-97.9" width="253" height="238"/>
	</defs>
	<clipPath id="SVGID_00000109716185952020735250000009664943901179694775_">
		<use xlink:href="#SVGID_1_"  style="overflow:visible;"/>
	</clipPath>
	<g style="clip-path:url(#SVGID_00000109716185952020735250000009664943901179694775_);">
		<path class="st1" d="M33.9,23.6L23.5,2H12.9L2.5,23.6h8l1.8-3.8h11.9l1.8,3.8H33.9z M18.2,7.1l3.4,7.3h-6.8L18.2,7.1z M58.5,2
			H36.3v21.6h22.2v-5.7H43.8v-2.3h14.1V9.9H43.8V7.7h14.7V2z M83.5,15.1c2.6-0.9,4-2.8,4-6.1c0-4.5-3-7-8.9-7H61.8v21.6h7.5v-5.5
			h8.3c1.9,0,2.4,0.5,2.4,2.5v3.1h7.5v-4.3C87.6,16.7,86,15.2,83.5,15.1z M76.8,8c1.7,0,2.9,0,2.9,2c0,2-1.3,2-2.9,2h-7.5V8H76.8z
			 M104.4,24.2c8.9,0,14.1-4.1,14.1-11.4c0-7.3-5.2-11.4-14.1-11.4c-8.9,0-14.1,4.1-14.1,11.4C90.3,20.1,95.4,24.2,104.4,24.2z
			 M104.4,17.9c-4.9,0-6.3-2.3-6.3-5.1c0-2.8,1.4-5.1,6.3-5.1s6.3,2.3,6.3,5.1C110.7,15.6,109.2,17.9,104.4,17.9z M120.9,16.5
			c0.3,5.6,5.3,7.7,14,7.7c8,0,12.8-1.8,12.8-7.3c0-5.8-5.1-6.4-12.8-7.1C129.7,9.4,129,9,129,8.1c0-0.7,0.8-1.3,4.4-1.3
			c3.8,0,5.6,0.5,5.6,1.9h7.8c-0.3-4.8-4.9-7.3-13.4-7.3c-7.4,0-12.2,2.3-12.2,6.7c0,4.8,3.9,6.7,12.5,7.3c5.5,0.4,6.2,0.6,6.2,1.8
			c0,0.9-0.7,1.6-5.3,1.6c-4.4,0-5.9-1-5.9-2.3H120.9z M172.9,2h-22.2v21.6h22.2v-5.7h-14.7v-2.3h14.1V9.9h-14.1V7.7h14.7V2z
			 M197.9,15.1c2.6-0.9,4-2.8,4-6.1c0-4.5-3-7-8.9-7h-16.8v21.6h7.5v-5.5h8.3c1.9,0,2.4,0.5,2.4,2.5v3.1h7.5v-4.3
			C202,16.7,200.4,15.2,197.9,15.1z M191.2,8c1.7,0,2.9,0,2.9,2c0,2-1.3,2-2.9,2h-7.5V8H191.2z M204.7,12.7
			c0,7.6,5.8,11.4,14.1,11.4c4.1,0,7.8-0.6,12.2-3v-9.6h-12.7V16h6.7v1.3c-1.6,0.7-3.3,1.1-5.8,1.1c-5.3,0-6.8-2.3-6.8-5.4
			s1.7-5.4,5.8-5.4c3.2,0,4.4,1.3,4.7,2.2h8c-0.3-5-5.3-8.5-12.8-8.5C210.4,1.4,204.7,5.2,204.7,12.7z"/>
	</g>
</g>
</svg>
